<svg version="1.1" xmlns="http://www.w3.org/2000/svg" xmlns:xlink="http://www.w3.org/1999/xlink" width="836" height="836"><defs/><g><text fill="#eeeeee" stroke="none" font-family="Arial" font-size="24px" font-style="normal" font-weight="normal" text-decoration="none" x="0" y="0"></text><text fill="#eeeeee" stroke="none" font-family="Arial" font-size="24px" font-style="normal" font-weight="normal" text-decoration="none" x="0" y="30"></text><text fill="#eeeeee" stroke="none" font-family="Arial" font-size="24px" font-style="normal" font-weight="normal" text-decoration="none" x="0" y="60"></text><text fill="#eeeeee" stroke="none" font-family="Arial" font-size="24px" font-style="normal" font-weight="normal" text-decoration="none" x="0" y="90"></text><text fill="#eeeeee" stroke="none" font-family="Arial" font-size="24px" font-style="normal" font-weight="normal" text-decoration="none" x="0" y="120"></text><text fill="#eeeeee" stroke="none" font-family="Arial" font-size="24px" font-style="normal" font-weight="normal" text-decoration="none" x="0" y="150"></text><text fill="#eeeeee" stroke="none" font-family="Arial" font-size="24px" font-style="normal" font-weight="normal" text-decoration="none" x="0" y="180"></text><text fill="#eeeeee" stroke="none" font-family="Arial" font-size="24px" font-style="normal" font-weight="normal" text-decoration="none" x="0" y="210"></text><text fill="#eeeeee" stroke="none" font-family="Arial" font-size="24px" font-style="normal" font-weight="normal" text-decoration="none" x="0" y="240"></text><text fill="#eeeeee" stroke="none" font-family="Arial" font-size="24px" font-style="normal" font-weight="normal" text-decoration="none" x="0" y="270"></text><text fill="#eeeeee" stroke="none" font-family="Arial" font-size="24px" font-style="normal" font-weight="normal" text-decoration="none" x="0" y="300"></text><text fill="#eeeeee" stroke="none" font-family="Arial" font-size="24px" font-style="normal" font-weight="normal" text-decoration="none" x="0" y="330"></text><text fill="#eeeeee" stroke="none" font-family="Arial" font-size="24px" font-style="normal" font-weight="normal" text-decoration="none" x="0" y="360"></text><text fill="#eeeeee" stroke="none" font-family="Arial" font-size="24px" font-style="normal" font-weight="normal" text-decoration="none" x="0" y="390"></text><text fill="#eeeeee" stroke="none" font-family="Arial" font-size="24px" font-style="normal" font-weight="normal" text-decoration="none" x="0" y="420"></text><text fill="#eeeeee" stroke="none" font-family="Arial" font-size="24px" font-style="normal" font-weight="normal" text-decoration="none" x="0" y="450"></text><text fill="#eeeeee" stroke="none" font-family="Arial" font-size="24px" font-style="normal" font-weight="normal" text-decoration="none" x="0" y="480"></text><text fill="#eeeeee" stroke="none" font-family="Arial" font-size="24px" font-style="normal" font-weight="normal" text-decoration="none" x="0" y="510"></text><text fill="#eeeeee" stroke="none" font-family="Arial" font-size="24px" font-style="normal" font-weight="normal" text-decoration="none" x="0" y="540"></text><text fill="#eeeeee" stroke="none" font-family="Arial" font-size="24px" font-style="normal" font-weight="normal" text-decoration="none" x="0" y="570"></text><text fill="#eeeeee" stroke="none" font-family="Arial" font-size="24px" font-style="normal" font-weight="normal" text-decoration="none" x="0" y="600"></text><text fill="#eeeeee" stroke="none" font-family="Arial" font-size="24px" font-style="normal" font-weight="normal" text-decoration="none" x="0" y="630"></text><text fill="#eeeeee" stroke="none" font-family="Arial" font-size="24px" font-style="normal" font-weight="normal" text-decoration="none" x="0" y="660"></text><text fill="#eeeeee" stroke="none" font-family="Arial" font-size="24px" font-style="normal" font-weight="normal" text-decoration="none" x="0" y="690"></text><text fill="#eeeeee" stroke="none" font-family="Arial" font-size="24px" font-style="normal" font-weight="normal" text-decoration="none" x="0" y="720"></text><text fill="#eeeeee" stroke="none" font-family="Arial" font-size="24px" font-style="normal" font-weight="normal" text-decoration="none" x="0" y="750"></text><text fill="#eeeeee" stroke="none" font-family="Arial" font-size="24px" font-style="normal" font-weight="normal" text-decoration="none" x="0" y="780"></text><text fill="#eeeeee" stroke="none" font-family="Arial" font-size="24px" font-style="normal" font-weight="normal" text-decoration="none" x="0" y="810"></text><text fill="#eeeeee" stroke="none" font-family="Arial" font-size="24px" font-style="normal" font-weight="normal" text-decoration="none" x="200" y="0"></text><text fill="#eeeeee" stroke="none" font-family="Arial" font-size="24px" font-style="normal" font-weight="normal" text-decoration="none" x="200" y="30"></text><text fill="#eeeeee" stroke="none" font-family="Arial" font-size="24px" font-style="normal" font-weight="normal" text-decoration="none" x="200" y="60"></text><text fill="#eeeeee" stroke="none" font-family="Arial" font-size="24px" font-style="normal" font-weight="normal" text-decoration="none" x="200" y="90"></text><text fill="#eeeeee" stroke="none" font-family="Arial" font-size="24px" font-style="normal" font-weight="normal" text-decoration="none" x="200" y="120"></text><text fill="#eeeeee" stroke="none" font-family="Arial" font-size="24px" font-style="normal" font-weight="normal" text-decoration="none" x="200" y="150"></text><text fill="#eeeeee" stroke="none" font-family="Arial" font-size="24px" font-style="normal" font-weight="normal" text-decoration="none" x="200" y="180"></text><text fill="#eeeeee" stroke="none" font-family="Arial" font-size="24px" font-style="normal" font-weight="normal" text-decoration="none" x="200" y="210"></text><text fill="#eeeeee" stroke="none" font-family="Arial" font-size="24px" font-style="normal" font-weight="normal" text-decoration="none" x="200" y="240"></text><text fill="#eeeeee" stroke="none" font-family="Arial" font-size="24px" font-style="normal" font-weight="normal" text-decoration="none" x="200" y="270"></text><text fill="#eeeeee" stroke="none" font-family="Arial" font-size="24px" font-style="normal" font-weight="normal" text-decoration="none" x="200" y="300"></text><text fill="#eeeeee" stroke="none" font-family="Arial" font-size="24px" font-style="normal" font-weight="normal" text-decoration="none" x="200" y="330"></text><text fill="#eeeeee" stroke="none" font-family="Arial" font-size="24px" font-style="normal" font-weight="normal" text-decoration="none" x="200" y="360"></text><text fill="#eeeeee" stroke="none" font-family="Arial" font-size="24px" font-style="normal" font-weight="normal" text-decoration="none" x="200" y="390"></text><text fill="#eeeeee" stroke="none" font-family="Arial" font-size="24px" font-style="normal" font-weight="normal" text-decoration="none" x="200" y="420"></text><text fill="#eeeeee" stroke="none" font-family="Arial" font-size="24px" font-style="normal" font-weight="normal" text-decoration="none" x="200" y="450"></text><text fill="#eeeeee" stroke="none" font-family="Arial" font-size="24px" font-style="normal" font-weight="normal" text-decoration="none" x="200" y="480"></text><text fill="#eeeeee" stroke="none" font-family="Arial" font-size="24px" font-style="normal" font-weight="normal" text-decoration="none" x="200" y="510"></text><text fill="#eeeeee" stroke="none" font-family="Arial" font-size="24px" font-style="normal" font-weight="normal" text-decoration="none" x="200" y="540"></text><text fill="#eeeeee" stroke="none" font-family="Arial" font-size="24px" font-style="normal" font-weight="normal" text-decoration="none" x="200" y="570"></text><text fill="#eeeeee" stroke="none" font-family="Arial" font-size="24px" font-style="normal" font-weight="normal" text-decoration="none" x="200" y="600"></text><text fill="#eeeeee" stroke="none" font-family="Arial" font-size="24px" font-style="normal" font-weight="normal" text-decoration="none" x="200" y="630"></text><text fill="#eeeeee" stroke="none" font-family="Arial" font-size="24px" font-style="normal" font-weight="normal" text-decoration="none" x="200" y="660"></text><text fill="#eeeeee" stroke="none" font-family="Arial" font-size="24px" font-style="normal" font-weight="normal" text-decoration="none" x="200" y="690"></text><text fill="#eeeeee" stroke="none" font-family="Arial" font-size="24px" font-style="normal" font-weight="normal" text-decoration="none" x="200" y="720"></text><text fill="#eeeeee" stroke="none" font-family="Arial" font-size="24px" font-style="normal" font-weight="normal" text-decoration="none" x="200" y="750"></text><text fill="#eeeeee" stroke="none" font-family="Arial" font-size="24px" font-style="normal" font-weight="normal" text-decoration="none" x="200" y="780"></text><text fill="#eeeeee" stroke="none" font-family="Arial" font-size="24px" font-style="normal" font-weight="normal" text-decoration="none" x="200" y="810"></text><text fill="#eeeeee" stroke="none" font-family="Arial" font-size="24px" font-style="normal" font-weight="normal" text-decoration="none" x="400" y="0"></text><text fill="#eeeeee" stroke="none" font-family="Arial" font-size="24px" font-style="normal" font-weight="normal" text-decoration="none" x="400" y="30"></text><text fill="#eeeeee" stroke="none" font-family="Arial" font-size="24px" font-style="normal" font-weight="normal" text-decoration="none" x="400" y="60"></text><text fill="#eeeeee" stroke="none" font-family="Arial" font-size="24px" font-style="normal" font-weight="normal" text-decoration="none" x="400" y="90"></text><text fill="#eeeeee" stroke="none" font-family="Arial" font-size="24px" font-style="normal" font-weight="normal" text-decoration="none" x="400" y="120"></text><text fill="#eeeeee" stroke="none" font-family="Arial" font-size="24px" font-style="normal" font-weight="normal" text-decoration="none" x="400" y="150"></text><text fill="#eeeeee" stroke="none" font-family="Arial" font-size="24px" font-style="normal" font-weight="normal" text-decoration="none" x="400" y="180"></text><text fill="#eeeeee" stroke="none" font-family="Arial" font-size="24px" font-style="normal" font-weight="normal" text-decoration="none" x="400" y="210"></text><text fill="#eeeeee" stroke="none" font-family="Arial" font-size="24px" font-style="normal" font-weight="normal" text-decoration="none" x="400" y="240"></text><text fill="#eeeeee" stroke="none" font-family="Arial" font-size="24px" font-style="normal" font-weight="normal" text-decoration="none" x="400" y="270"></text><text fill="#eeeeee" stroke="none" font-family="Arial" font-size="24px" font-style="normal" font-weight="normal" text-decoration="none" x="400" y="300"></text><text fill="#eeeeee" stroke="none" font-family="Arial" font-size="24px" font-style="normal" font-weight="normal" text-decoration="none" x="400" y="330"></text><text fill="#eeeeee" stroke="none" font-family="Arial" font-size="24px" font-style="normal" font-weight="normal" text-decoration="none" x="400" y="360"></text><text fill="#eeeeee" stroke="none" font-family="Arial" font-size="24px" font-style="normal" font-weight="normal" text-decoration="none" x="400" y="390"></text><text fill="#eeeeee" stroke="none" font-family="Arial" font-size="24px" font-style="normal" font-weight="normal" text-decoration="none" x="400" y="420"></text><text fill="#eeeeee" stroke="none" font-family="Arial" font-size="24px" font-style="normal" font-weight="normal" text-decoration="none" x="400" y="450"></text><text fill="#eeeeee" stroke="none" font-family="Arial" font-size="24px" font-style="normal" font-weight="normal" text-decoration="none" x="400" y="480"></text><text fill="#eeeeee" stroke="none" font-family="Arial" font-size="24px" font-style="normal" font-weight="normal" text-decoration="none" x="400" y="510"></text><text fill="#eeeeee" stroke="none" font-family="Arial" font-size="24px" font-style="normal" font-weight="normal" text-decoration="none" x="400" y="540"></text><text fill="#eeeeee" stroke="none" font-family="Arial" font-size="24px" font-style="normal" font-weight="normal" text-decoration="none" x="400" y="570"></text><text fill="#eeeeee" stroke="none" font-family="Arial" font-size="24px" font-style="normal" font-weight="normal" text-decoration="none" x="400" y="600"></text><text fill="#eeeeee" stroke="none" font-family="Arial" font-size="24px" font-style="normal" font-weight="normal" text-decoration="none" x="400" y="630"></text><text fill="#eeeeee" stroke="none" font-family="Arial" font-size="24px" font-style="normal" font-weight="normal" text-decoration="none" x="400" y="660"></text><text fill="#eeeeee" stroke="none" font-family="Arial" font-size="24px" font-style="normal" font-weight="normal" text-decoration="none" x="400" y="690"></text><text fill="#eeeeee" stroke="none" font-family="Arial" font-size="24px" font-style="normal" font-weight="normal" text-decoration="none" x="400" y="720"></text><text fill="#eeeeee" stroke="none" font-family="Arial" font-size="24px" font-style="normal" font-weight="normal" text-decoration="none" x="400" y="750"></text><text fill="#eeeeee" stroke="none" font-family="Arial" font-size="24px" font-style="normal" font-weight="normal" text-decoration="none" x="400" y="780"></text><text fill="#eeeeee" stroke="none" font-family="Arial" font-size="24px" font-style="normal" font-weight="normal" text-decoration="none" x="400" y="810"></text><text fill="#eeeeee" stroke="none" font-family="Arial" font-size="24px" font-style="normal" font-weight="normal" text-decoration="none" x="600" y="0"></text><text fill="#eeeeee" stroke="none" font-family="Arial" font-size="24px" font-style="normal" font-weight="normal" text-decoration="none" x="600" y="30"></text><text fill="#eeeeee" stroke="none" font-family="Arial" font-size="24px" font-style="normal" font-weight="normal" text-decoration="none" x="600" y="60"></text><text fill="#eeeeee" stroke="none" font-family="Arial" font-size="24px" font-style="normal" font-weight="normal" text-decoration="none" x="600" y="90"></text><text fill="#eeeeee" stroke="none" font-family="Arial" font-size="24px" font-style="normal" font-weight="normal" text-decoration="none" x="600" y="120"></text><text fill="#eeeeee" stroke="none" font-family="Arial" font-size="24px" font-style="normal" font-weight="normal" text-decoration="none" x="600" y="150"></text><text fill="#eeeeee" stroke="none" font-family="Arial" font-size="24px" font-style="normal" font-weight="normal" text-decoration="none" x="600" y="180"></text><text fill="#eeeeee" stroke="none" font-family="Arial" font-size="24px" font-style="normal" font-weight="normal" text-decoration="none" x="600" y="210"></text><text fill="#eeeeee" stroke="none" font-family="Arial" font-size="24px" font-style="normal" font-weight="normal" text-decoration="none" x="600" y="240"></text><text fill="#eeeeee" stroke="none" font-family="Arial" font-size="24px" font-style="normal" font-weight="normal" text-decoration="none" x="600" y="270"></text><text fill="#eeeeee" stroke="none" font-family="Arial" font-size="24px" font-style="normal" font-weight="normal" text-decoration="none" x="600" y="300"></text><text fill="#eeeeee" stroke="none" font-family="Arial" font-size="24px" font-style="normal" font-weight="normal" text-decoration="none" x="600" y="330"></text><text fill="#eeeeee" stroke="none" font-family="Arial" font-size="24px" font-style="normal" font-weight="normal" text-decoration="none" x="600" y="360"></text><text fill="#eeeeee" stroke="none" font-family="Arial" font-size="24px" font-style="normal" font-weight="normal" text-decoration="none" x="600" y="390"></text><text fill="#eeeeee" stroke="none" font-family="Arial" font-size="24px" font-style="normal" font-weight="normal" text-decoration="none" x="600" y="420"></text><text fill="#eeeeee" stroke="none" font-family="Arial" font-size="24px" font-style="normal" font-weight="normal" text-decoration="none" x="600" y="450"></text><text fill="#eeeeee" stroke="none" font-family="Arial" font-size="24px" font-style="normal" font-weight="normal" text-decoration="none" x="600" y="480"></text><text fill="#eeeeee" stroke="none" font-family="Arial" font-size="24px" font-style="normal" font-weight="normal" text-decoration="none" x="600" y="510"></text><text fill="#eeeeee" stroke="none" font-family="Arial" font-size="24px" font-style="normal" font-weight="normal" text-decoration="none" x="600" y="540"></text><text fill="#eeeeee" stroke="none" font-family="Arial" font-size="24px" font-style="normal" font-weight="normal" text-decoration="none" x="600" y="570"></text><text fill="#eeeeee" stroke="none" font-family="Arial" font-size="24px" font-style="normal" font-weight="normal" text-decoration="none" x="600" y="600"></text><text fill="#eeeeee" stroke="none" font-family="Arial" font-size="24px" font-style="normal" font-weight="normal" text-decoration="none" x="600" y="630"></text><text fill="#eeeeee" stroke="none" font-family="Arial" font-size="24px" font-style="normal" font-weight="normal" text-decoration="none" x="600" y="660"></text><text fill="#eeeeee" stroke="none" font-family="Arial" font-size="24px" font-style="normal" font-weight="normal" text-decoration="none" x="600" y="690"></text><text fill="#eeeeee" stroke="none" font-family="Arial" font-size="24px" font-style="normal" font-weight="normal" text-decoration="none" x="600" y="720"></text><text fill="#eeeeee" stroke="none" font-family="Arial" font-size="24px" font-style="normal" font-weight="normal" text-decoration="none" x="600" y="750"></text><text fill="#eeeeee" stroke="none" font-family="Arial" font-size="24px" font-style="normal" font-weight="normal" text-decoration="none" x="600" y="780"></text><text fill="#eeeeee" stroke="none" font-family="Arial" font-size="24px" font-style="normal" font-weight="normal" text-decoration="none" x="600" y="810"></text><text fill="#eeeeee" stroke="none" font-family="Arial" font-size="24px" font-style="normal" font-weight="normal" text-decoration="none" x="800" y="0"></text><text fill="#eeeeee" stroke="none" font-family="Arial" font-size="24px" font-style="normal" font-weight="normal" text-decoration="none" x="800" y="30"></text><text fill="#eeeeee" stroke="none" font-family="Arial" font-size="24px" font-style="normal" font-weight="normal" text-decoration="none" x="800" y="60"></text><text fill="#eeeeee" stroke="none" font-family="Arial" font-size="24px" font-style="normal" font-weight="normal" text-decoration="none" x="800" y="90"></text><text fill="#eeeeee" stroke="none" font-family="Arial" font-size="24px" font-style="normal" font-weight="normal" text-decoration="none" x="800" y="120"></text><text fill="#eeeeee" stroke="none" font-family="Arial" font-size="24px" font-style="normal" font-weight="normal" text-decoration="none" x="800" y="150"></text><text fill="#eeeeee" stroke="none" font-family="Arial" font-size="24px" font-style="normal" font-weight="normal" text-decoration="none" x="800" y="180"></text><text fill="#eeeeee" stroke="none" font-family="Arial" font-size="24px" font-style="normal" font-weight="normal" text-decoration="none" x="800" y="210"></text><text fill="#eeeeee" stroke="none" font-family="Arial" font-size="24px" font-style="normal" font-weight="normal" text-decoration="none" x="800" y="240"></text><text fill="#eeeeee" stroke="none" font-family="Arial" font-size="24px" font-style="normal" font-weight="normal" text-decoration="none" x="800" y="270"></text><text fill="#eeeeee" stroke="none" font-family="Arial" font-size="24px" font-style="normal" font-weight="normal" text-decoration="none" x="800" y="300"></text><text fill="#eeeeee" stroke="none" font-family="Arial" font-size="24px" font-style="normal" font-weight="normal" text-decoration="none" x="800" y="330"></text><text fill="#eeeeee" stroke="none" font-family="Arial" font-size="24px" font-style="normal" font-weight="normal" text-decoration="none" x="800" y="360"></text><text fill="#eeeeee" stroke="none" font-family="Arial" font-size="24px" font-style="normal" font-weight="normal" text-decoration="none" x="800" y="390"></text><text fill="#eeeeee" stroke="none" font-family="Arial" font-size="24px" font-style="normal" font-weight="normal" text-decoration="none" x="800" y="420"></text><text fill="#eeeeee" stroke="none" font-family="Arial" font-size="24px" font-style="normal" font-weight="normal" text-decoration="none" x="800" y="450"></text><text fill="#eeeeee" stroke="none" font-family="Arial" font-size="24px" font-style="normal" font-weight="normal" text-decoration="none" x="800" y="480"></text><text fill="#eeeeee" stroke="none" font-family="Arial" font-size="24px" font-style="normal" font-weight="normal" text-decoration="none" x="800" y="510"></text><text fill="#eeeeee" stroke="none" font-family="Arial" font-size="24px" font-style="normal" font-weight="normal" text-decoration="none" x="800" y="540"></text><text fill="#eeeeee" stroke="none" font-family="Arial" font-size="24px" font-style="normal" font-weight="normal" text-decoration="none" x="800" y="570"></text><text fill="#eeeeee" stroke="none" font-family="Arial" font-size="24px" font-style="normal" font-weight="normal" text-decoration="none" x="800" y="600"></text><text fill="#eeeeee" stroke="none" font-family="Arial" font-size="24px" font-style="normal" font-weight="normal" text-decoration="none" x="800" y="630"></text><text fill="#eeeeee" stroke="none" font-family="Arial" font-size="24px" font-style="normal" font-weight="normal" text-decoration="none" x="800" y="660"></text><text fill="#eeeeee" stroke="none" font-family="Arial" font-size="24px" font-style="normal" font-weight="normal" text-decoration="none" x="800" y="690"></text><text fill="#eeeeee" stroke="none" font-family="Arial" font-size="24px" font-style="normal" font-weight="normal" text-decoration="none" x="800" y="720"></text><text fill="#eeeeee" stroke="none" font-family="Arial" font-size="24px" font-style="normal" font-weight="normal" text-decoration="none" x="800" y="750"></text><text fill="#eeeeee" stroke="none" font-family="Arial" font-size="24px" font-style="normal" font-weight="normal" text-decoration="none" x="800" y="780"></text><text fill="#eeeeee" stroke="none" font-family="Arial" font-size="24px" font-style="normal" font-weight="normal" text-decoration="none" x="800" y="810"></text><g transform="translate(-198,-126) scale(1,1)"><path fill="#C0C0C0" stroke="none" d="M 711 153 L 1020 153 L 1020 462 L 711 462" opacity="0.2"/></g><g transform="translate(-198,-126) scale(1,1)"><path fill="#C0C0C0" stroke="none" d="M 711 153 L 721 143 L 1030 143 L 1020 153" opacity="0.2"/></g><g transform="translate(-198,-126) scale(1,1)"><path fill="#C0C0C0" stroke="none" d="M 1030 143 L 1020 153 L 1020 462 L 1030 452" opacity="0.2"/></g><g transform="translate(-198,-126) scale(1,1)"><path fill="#ffffff" stroke="none" d="M 704 146 L 1013 146 L 1013 455 L 704 455"/></g><g transform="translate(-198,-126) scale(1,1)"><path fill="#ffffff" stroke="none" d="M 704 146 L 714 136 L 1023 136 L 1013 146"/></g><g transform="translate(-198,-126) scale(1,1)"><path fill="#ffffff" stroke="none" d="M 1023 136 L 1013 146 L 1013 455 L 1023 445"/></g><g transform="translate(-198,-126) scale(1,1)"><path fill="none" stroke="#000000" d="M 704 146 L 1013 146 L 1013 455 L 704 455 L 704 146" stroke-miterlimit="10"/></g><g transform="translate(-198,-126) scale(1,1)"><path fill="none" stroke="#000000" d="M 704 146 L 714 136 L 1023 136 L 1013 146 L 704 146" stroke-miterlimit="10"/></g><g transform="translate(-198,-126) scale(1,1)"><path fill="none" stroke="#000000" d="M 1023 136 L 1013 146 L 1013 455 L 1023 445 L 1023 136" stroke-miterlimit="10"/></g><g transform="translate(-198,-126) scale(1,1)"><g><path fill="none" stroke="none"/><text fill="#000000" stroke="none" font-family="Arial" font-size="13px" font-style="normal" font-weight="bold" text-decoration="none" x="849.25" y="165.5">VM</text></g></g><g transform="translate(-198,-126) scale(1,1)"><path fill="#C0C0C0" stroke="none" d="M 743 209 L 980 209 L 980 446 L 743 446" opacity="0.2"/></g><g transform="translate(-198,-126) scale(1,1)"><path fill="#C0C0C0" stroke="none" d="M 743 209 L 753 199 L 990 199 L 980 209" opacity="0.2"/></g><g transform="translate(-198,-126) scale(1,1)"><path fill="#C0C0C0" stroke="none" d="M 990 199 L 980 209 L 980 446 L 990 436" opacity="0.2"/></g><g transform="translate(-198,-126) scale(1,1)"><path fill="#ffffff" stroke="none" d="M 736 202 L 973 202 L 973 439 L 736 439"/></g><g transform="translate(-198,-126) scale(1,1)"><path fill="#ffffff" stroke="none" d="M 736 202 L 746 192 L 983 192 L 973 202"/></g><g transform="translate(-198,-126) scale(1,1)"><path fill="#ffffff" stroke="none" d="M 983 192 L 973 202 L 973 439 L 983 429"/></g><g transform="translate(-198,-126) scale(1,1)"><path fill="none" stroke="#000000" d="M 736 202 L 973 202 L 973 439 L 736 439 L 736 202" stroke-miterlimit="10"/></g><g transform="translate(-198,-126) scale(1,1)"><path fill="none" stroke="#000000" d="M 736 202 L 746 192 L 983 192 L 973 202 L 736 202" stroke-miterlimit="10"/></g><g transform="translate(-198,-126) scale(1,1)"><path fill="none" stroke="#000000" d="M 983 192 L 973 202 L 973 439 L 983 429 L 983 192" stroke-miterlimit="10"/></g><g transform="translate(-198,-126) scale(1,1)"><g><path fill="none" stroke="none"/><text fill="#000000" stroke="none" font-family="Arial" font-size="13px" font-style="normal" font-weight="bold" text-decoration="none" x="813.08642578125" y="221.5">Docker engine</text></g></g><g transform="translate(-198,-126) scale(1,1)"><path fill="#C0C0C0" stroke="none" d="M 303 193 L 548 193 L 548 418 L 303 418" opacity="0.2"/></g><g transform="translate(-198,-126) scale(1,1)"><path fill="#C0C0C0" stroke="none" d="M 303 193 L 313 183 L 558 183 L 548 193" opacity="0.2"/></g><g transform="translate(-198,-126) scale(1,1)"><path fill="#C0C0C0" stroke="none" d="M 558 183 L 548 193 L 548 418 L 558 408" opacity="0.2"/></g><g transform="translate(-198,-126) scale(1,1)"><path fill="#ffffff" stroke="none" d="M 296 186 L 541 186 L 541 411 L 296 411"/></g><g transform="translate(-198,-126) scale(1,1)"><path fill="#ffffff" stroke="none" d="M 296 186 L 306 176 L 551 176 L 541 186"/></g><g transform="translate(-198,-126) scale(1,1)"><path fill="#ffffff" stroke="none" d="M 551 176 L 541 186 L 541 411 L 551 401"/></g><g transform="translate(-198,-126) scale(1,1)"><path fill="none" stroke="#000000" d="M 296 186 L 541 186 L 541 411 L 296 411 L 296 186" stroke-miterlimit="10"/></g><g transform="translate(-198,-126) scale(1,1)"><path fill="none" stroke="#000000" d="M 296 186 L 306 176 L 551 176 L 541 186 L 296 186" stroke-miterlimit="10"/></g><g transform="translate(-198,-126) scale(1,1)"><path fill="none" stroke="#000000" d="M 551 176 L 541 186 L 541 411 L 551 401 L 551 176" stroke-miterlimit="10"/></g><g transform="translate(-198,-126) scale(1,1)"><g><path fill="none" stroke="none"/><text fill="#000000" stroke="none" font-family="Arial" font-size="13px" font-style="normal" font-weight="bold" text-decoration="none" x="359.760498046875" y="205.5">Swarm manager VM</text></g></g><g transform="translate(-198,-126) scale(1,1)"><path fill="#C0C0C0" stroke="none" d="M 215 633 L 644 633 L 644 958 L 215 958" opacity="0.2"/></g><g transform="translate(-198,-126) scale(1,1)"><path fill="#C0C0C0" stroke="none" d="M 215 633 L 225 623 L 654 623 L 644 633" opacity="0.2"/></g><g transform="translate(-198,-126) scale(1,1)"><path fill="#C0C0C0" stroke="none" d="M 654 623 L 644 633 L 644 958 L 654 948" opacity="0.2"/></g><g transform="translate(-198,-126) scale(1,1)"><path fill="#ffffff" stroke="none" d="M 208 626 L 637 626 L 637 951 L 208 951"/></g><g transform="translate(-198,-126) scale(1,1)"><path fill="#ffffff" stroke="none" d="M 208 626 L 218 616 L 647 616 L 637 626"/></g><g transform="translate(-198,-126) scale(1,1)"><path fill="#ffffff" stroke="none" d="M 647 616 L 637 626 L 637 951 L 647 941"/></g><g transform="translate(-198,-126) scale(1,1)"><path fill="none" stroke="#000000" d="M 208 626 L 637 626 L 637 951 L 208 951 L 208 626" stroke-miterlimit="10"/></g><g transform="translate(-198,-126) scale(1,1)"><path fill="none" stroke="#000000" d="M 208 626 L 218 616 L 647 616 L 637 626 L 208 626" stroke-miterlimit="10"/></g><g transform="translate(-198,-126) scale(1,1)"><path fill="none" stroke="#000000" d="M 647 616 L 637 626 L 637 951 L 647 941 L 647 616" stroke-miterlimit="10"/></g><g transform="translate(-198,-126) scale(1,1)"><g><path fill="none" stroke="none"/><text fill="#000000" stroke="none" font-family="Arial" font-size="13px" font-style="normal" font-weight="bold" text-decoration="none" x="369.911376953125" y="645.5">Swarm worker VM</text></g></g><g transform="translate(-198,-126) scale(1,1)"><path fill="none" stroke="#000000" d="M 425 413 L 427 615" stroke-miterlimit="10"/></g><g transform="translate(-198,-126) scale(1,1)"><g><path fill="none" stroke="none"/><text fill="#000000" stroke="none" font-family="Arial" font-size="13px" font-style="normal" font-weight="normal" text-decoration="none" x="408.5" y="440.5">2</text></g></g><g transform="translate(-198,-126) scale(1,1)"><g><path fill="none" stroke="none"/><text fill="#000000" stroke="none" font-family="Arial" font-size="13px" font-style="normal" font-weight="normal" text-decoration="none" x="410.5" y="599.5">3</text></g></g><g transform="translate(-198,-126) scale(1,1)"><path fill="#C0C0C0" stroke="none" d="M 239 673 L 604 673 L 604 926 L 239 926" opacity="0.2"/></g><g transform="translate(-198,-126) scale(1,1)"><path fill="#C0C0C0" stroke="none" d="M 239 673 L 249 663 L 614 663 L 604 673" opacity="0.2"/></g><g transform="translate(-198,-126) scale(1,1)"><path fill="#C0C0C0" stroke="none" d="M 614 663 L 604 673 L 604 926 L 614 916" opacity="0.2"/></g><g transform="translate(-198,-126) scale(1,1)"><path fill="#ffffff" stroke="none" d="M 232 666 L 597 666 L 597 919 L 232 919"/></g><g transform="translate(-198,-126) scale(1,1)"><path fill="#ffffff" stroke="none" d="M 232 666 L 242 656 L 607 656 L 597 666"/></g><g transform="translate(-198,-126) scale(1,1)"><path fill="#ffffff" stroke="none" d="M 607 656 L 597 666 L 597 919 L 607 909"/></g><g transform="translate(-198,-126) scale(1,1)"><path fill="none" stroke="#000000" d="M 232 666 L 597 666 L 597 919 L 232 919 L 232 666" stroke-miterlimit="10"/></g><g transform="translate(-198,-126) scale(1,1)"><path fill="none" stroke="#000000" d="M 232 666 L 242 656 L 607 656 L 597 666 L 232 666" stroke-miterlimit="10"/></g><g transform="translate(-198,-126) scale(1,1)"><path fill="none" stroke="#000000" d="M 607 656 L 597 666 L 597 919 L 607 909 L 607 656" stroke-miterlimit="10"/></g><g transform="translate(-198,-126) scale(1,1)"><g><path fill="none" stroke="none"/><text fill="#000000" stroke="none" font-family="Arial" font-size="13px" font-style="normal" font-weight="bold" text-decoration="none" x="373.08642578125" y="685.5">Docker engine</text></g></g><g transform="translate(-198,-126) scale(1,1)"><rect fill="#C0C0C0" stroke="none" x="473" y="759" width="110.888671875" height="47" opacity="0.2"/></g><g transform="translate(-198,-126) scale(1,1)"><rect fill="#ffffff" stroke="none" x="466" y="752" width="110.888671875" height="47"/></g><g transform="translate(-198,-126) scale(1,1)"><path fill="none" stroke="#000000" d="M 466 752 L 576.888671875 752 L 576.888671875 799 L 466 799 L 466 752 Z Z" stroke-miterlimit="10"/></g><g transform="translate(-198,-126) scale(1,1)"><rect fill="#ffffff" stroke="none" x="456" y="759" width="20" height="10"/></g><g transform="translate(-198,-126) scale(1,1)"><path fill="none" stroke="#000000" d="M 456 759 L 476 759 L 476 769 L 456 769 L 456 759 Z Z" stroke-miterlimit="10"/></g><g transform="translate(-198,-126) scale(1,1)"><rect fill="#ffffff" stroke="none" x="456" y="779" width="20" height="10"/></g><g transform="translate(-198,-126) scale(1,1)"><path fill="none" stroke="#000000" d="M 456 779 L 476 779 L 476 789 L 456 789 L 456 779 Z Z" stroke-miterlimit="10"/></g><g transform="translate(-198,-126) scale(1,1)"><path fill="none" stroke="#000000" d="M 476 777 L 576.888671875 777" stroke-miterlimit="10"/></g><g transform="translate(-198,-126) scale(1,1)"><g><path fill="none" stroke="none"/><text fill="#000000" stroke="none" font-family="Arial" font-size="13px" font-style="normal" font-weight="bold" text-decoration="none" x="514.52978515625" y="771.5">kms</text></g></g><g transform="translate(-198,-126) scale(1,1)"><g><path fill="none" stroke="none"/><text fill="#000000" stroke="none" font-family="Arial" font-size="13px" font-style="normal" font-weight="normal" text-decoration="none" x="481" y="794.5">+image: JDK 11</text></g></g><g transform="translate(-198,-126) scale(1,1)"><rect fill="#C0C0C0" stroke="none" x="265" y="767" width="116.21435546875" height="47" opacity="0.2"/></g><g transform="translate(-198,-126) scale(1,1)"><rect fill="#ffffff" stroke="none" x="258" y="760" width="116.21435546875" height="47"/></g><g transform="translate(-198,-126) scale(1,1)"><path fill="none" stroke="#000000" d="M 258 760 L 374.21435546875 760 L 374.21435546875 807 L 258 807 L 258 760 Z Z" stroke-miterlimit="10"/></g><g transform="translate(-198,-126) scale(1,1)"><rect fill="#ffffff" stroke="none" x="248" y="767" width="20" height="10"/></g><g transform="translate(-198,-126) scale(1,1)"><path fill="none" stroke="#000000" d="M 248 767 L 268 767 L 268 777 L 248 777 L 248 767 Z Z" stroke-miterlimit="10"/></g><g transform="translate(-198,-126) scale(1,1)"><rect fill="#ffffff" stroke="none" x="248" y="787" width="20" height="10"/></g><g transform="translate(-198,-126) scale(1,1)"><path fill="none" stroke="#000000" d="M 248 787 L 268 787 L 268 797 L 248 797 L 248 787 Z Z" stroke-miterlimit="10"/></g><g transform="translate(-198,-126) scale(1,1)"><path fill="none" stroke="#000000" d="M 268 785 L 374.21435546875 785" stroke-miterlimit="10"/></g><g transform="translate(-198,-126) scale(1,1)"><g><path fill="none" stroke="none"/><text fill="#000000" stroke="none" font-family="Arial" font-size="13px" font-style="normal" font-weight="bold" text-decoration="none" x="301.956298828125" y="779.5">cspath</text></g></g><g transform="translate(-198,-126) scale(1,1)"><g><path fill="none" stroke="none"/><text fill="#000000" stroke="none" font-family="Arial" font-size="13px" font-style="normal" font-weight="normal" text-decoration="none" x="273" y="802.5">+image: node 10</text></g></g><g transform="translate(-198,-126) scale(1,1)"><rect fill="#C0C0C0" stroke="none" x="273" y="839" width="119.80712890625" height="62" opacity="0.2"/></g><g transform="translate(-198,-126) scale(1,1)"><rect fill="#ffffff" stroke="none" x="266" y="832" width="119.80712890625" height="62"/></g><g transform="translate(-198,-126) scale(1,1)"><path fill="none" stroke="#000000" d="M 266 832 L 385.80712890625 832 L 385.80712890625 894 L 266 894 L 266 832 Z Z" stroke-miterlimit="10"/></g><g transform="translate(-198,-126) scale(1,1)"><rect fill="#ffffff" stroke="none" x="256" y="839" width="20" height="10"/></g><g transform="translate(-198,-126) scale(1,1)"><path fill="none" stroke="#000000" d="M 256 839 L 276 839 L 276 849 L 256 849 L 256 839 Z Z" stroke-miterlimit="10"/></g><g transform="translate(-198,-126) scale(1,1)"><rect fill="#ffffff" stroke="none" x="256" y="859" width="20" height="10"/></g><g transform="translate(-198,-126) scale(1,1)"><path fill="none" stroke="#000000" d="M 256 859 L 276 859 L 276 869 L 256 869 L 256 859 Z Z" stroke-miterlimit="10"/></g><g transform="translate(-198,-126) scale(1,1)"><path fill="none" stroke="#000000" d="M 276 857 L 385.80712890625 857" stroke-miterlimit="10"/></g><g transform="translate(-198,-126) scale(1,1)"><g><path fill="none" stroke="none"/><text fill="#000000" stroke="none" font-family="Arial" font-size="13px" font-style="normal" font-weight="bold" text-decoration="none" x="297.654541015625" y="851.5">geolocation</text></g></g><g transform="translate(-198,-126) scale(1,1)"><g><path fill="none" stroke="none"/><text fill="#000000" stroke="none" font-family="Arial" font-size="13px" font-style="normal" font-weight="normal" text-decoration="none" x="281" y="874.5">+image: JDK 11</text></g></g><g transform="translate(-198,-126) scale(1,1)"><g><path fill="none" stroke="none"/><text fill="#000000" stroke="none" font-family="Arial" font-size="13px" font-style="normal" font-weight="normal" text-decoration="none" x="281" y="889.5">+include cryptolib</text></g></g><g transform="translate(-198,-126) scale(1,1)"><rect fill="#C0C0C0" stroke="none" x="809" y="295" width="98.44091796875" height="47" opacity="0.2"/></g><g transform="translate(-198,-126) scale(1,1)"><rect fill="#ffffff" stroke="none" x="802" y="288" width="98.44091796875" height="47"/></g><g transform="translate(-198,-126) scale(1,1)"><path fill="none" stroke="#000000" d="M 802 288 L 900.44091796875 288 L 900.44091796875 335 L 802 335 L 802 288 Z Z" stroke-miterlimit="10"/></g><g transform="translate(-198,-126) scale(1,1)"><rect fill="#ffffff" stroke="none" x="792" y="295" width="20" height="10"/></g><g transform="translate(-198,-126) scale(1,1)"><path fill="none" stroke="#000000" d="M 792 295 L 812 295 L 812 305 L 792 305 L 792 295 Z Z" stroke-miterlimit="10"/></g><g transform="translate(-198,-126) scale(1,1)"><rect fill="#ffffff" stroke="none" x="792" y="315" width="20" height="10"/></g><g transform="translate(-198,-126) scale(1,1)"><path fill="none" stroke="#000000" d="M 792 315 L 812 315 L 812 325 L 792 325 L 792 315 Z Z" stroke-miterlimit="10"/></g><g transform="translate(-198,-126) scale(1,1)"><path fill="none" stroke="#000000" d="M 812 313 L 900.44091796875 313" stroke-miterlimit="10"/></g><g transform="translate(-198,-126) scale(1,1)"><g><path fill="none" stroke="none"/><text fill="#000000" stroke="none" font-family="Arial" font-size="13px" font-style="normal" font-weight="bold" text-decoration="none" x="842.490478515625" y="307.5">vault</text></g></g><g transform="translate(-198,-126) scale(1,1)"><g><path fill="none" stroke="none"/><text fill="#000000" stroke="none" font-family="Arial" font-size="13px" font-style="normal" font-weight="normal" text-decoration="none" x="817" y="330.5">+image: vault</text></g></g><g transform="translate(-198,-126) scale(1,1)"><path fill="#C0C0C0" stroke="none" d="M 327 249 L 524 249 L 524 374 L 327 374" opacity="0.2"/></g><g transform="translate(-198,-126) scale(1,1)"><path fill="#C0C0C0" stroke="none" d="M 327 249 L 337 239 L 534 239 L 524 249" opacity="0.2"/></g><g transform="translate(-198,-126) scale(1,1)"><path fill="#C0C0C0" stroke="none" d="M 534 239 L 524 249 L 524 374 L 534 364" opacity="0.2"/></g><g transform="translate(-198,-126) scale(1,1)"><path fill="#ffffff" stroke="none" d="M 320 242 L 517 242 L 517 367 L 320 367"/></g><g transform="translate(-198,-126) scale(1,1)"><path fill="#ffffff" stroke="none" d="M 320 242 L 330 232 L 527 232 L 517 242"/></g><g transform="translate(-198,-126) scale(1,1)"><path fill="#ffffff" stroke="none" d="M 527 232 L 517 242 L 517 367 L 527 357"/></g><g transform="translate(-198,-126) scale(1,1)"><path fill="none" stroke="#000000" d="M 320 242 L 517 242 L 517 367 L 320 367 L 320 242" stroke-miterlimit="10"/></g><g transform="translate(-198,-126) scale(1,1)"><path fill="none" stroke="#000000" d="M 320 242 L 330 232 L 527 232 L 517 242 L 320 242" stroke-miterlimit="10"/></g><g transform="translate(-198,-126) scale(1,1)"><path fill="none" stroke="#000000" d="M 527 232 L 517 242 L 517 367 L 527 357 L 527 232" stroke-miterlimit="10"/></g><g transform="translate(-198,-126) scale(1,1)"><g><path fill="none" stroke="none"/><text fill="#000000" stroke="none" font-family="Arial" font-size="13px" font-style="normal" font-weight="bold" text-decoration="none" x="377.08642578125" y="261.5">Docker engine</text></g></g><g transform="translate(-198,-126) scale(1,1)"><path fill="none" stroke="#000000" d="M 553 295 L 703 295" stroke-miterlimit="10"/></g><g transform="translate(-198,-126) scale(1,1)"><g><path fill="none" stroke="none"/><text fill="#000000" stroke="none" font-family="Arial" font-size="13px" font-style="normal" font-weight="normal" text-decoration="none" x="610.5" y="286.5">+https</text></g></g><g transform="translate(-198,-126) scale(1,1)"><g><path fill="none" stroke="none"/><text fill="#000000" stroke="none" font-family="Arial" font-size="13px" font-style="normal" font-weight="normal" text-decoration="none" x="570.5" y="286.5">+2</text></g></g><g transform="translate(-198,-126) scale(1,1)"><g><path fill="none" stroke="none"/><text fill="#000000" stroke="none" font-family="Arial" font-size="13px" font-style="normal" font-weight="normal" text-decoration="none" x="669.5" y="286.5">+3</text></g></g><g transform="translate(-198,-126) scale(1,1)"><rect fill="#C0C0C0" stroke="none" x="473" y="847" width="108.9716796875" height="47" opacity="0.2"/></g><g transform="translate(-198,-126) scale(1,1)"><rect fill="#ffffff" stroke="none" x="466" y="840" width="108.9716796875" height="47"/></g><g transform="translate(-198,-126) scale(1,1)"><path fill="none" stroke="#000000" d="M 466 840 L 574.9716796875 840 L 574.9716796875 887 L 466 887 L 466 840 Z Z" stroke-miterlimit="10"/></g><g transform="translate(-198,-126) scale(1,1)"><rect fill="#ffffff" stroke="none" x="456" y="847" width="20" height="10"/></g><g transform="translate(-198,-126) scale(1,1)"><path fill="none" stroke="#000000" d="M 456 847 L 476 847 L 476 857 L 456 857 L 456 847 Z Z" stroke-miterlimit="10"/></g><g transform="translate(-198,-126) scale(1,1)"><rect fill="#ffffff" stroke="none" x="456" y="867" width="20" height="10"/></g><g transform="translate(-198,-126) scale(1,1)"><path fill="none" stroke="#000000" d="M 456 867 L 476 867 L 476 877 L 456 877 L 456 867 Z Z" stroke-miterlimit="10"/></g><g transform="translate(-198,-126) scale(1,1)"><path fill="none" stroke="#000000" d="M 476 865 L 574.9716796875 865" stroke-miterlimit="10"/></g><g transform="translate(-198,-126) scale(1,1)"><g><path fill="none" stroke="none"/><text fill="#000000" stroke="none" font-family="Arial" font-size="13px" font-style="normal" font-weight="bold" text-decoration="none" x="505.611328125" y="859.5">mongo</text></g></g><g transform="translate(-198,-126) scale(1,1)"><g><path fill="none" stroke="none"/><text fill="#000000" stroke="none" font-family="Arial" font-size="13px" font-style="normal" font-weight="normal" text-decoration="none" x="481" y="882.5">+image: mongo</text></g></g><g transform="translate(-198,-126) scale(1,1)"><rect fill="#C0C0C0" stroke="none" x="369" y="703" width="115.08447265625" height="44" opacity="0.2"/></g><g transform="translate(-198,-126) scale(1,1)"><rect fill="#ffffff" stroke="none" x="362" y="696" width="115.08447265625" height="44"/></g><g transform="translate(-198,-126) scale(1,1)"><path fill="none" stroke="#000000" d="M 362 696 L 477.08447265625 696 L 477.08447265625 740 L 362 740 L 362 696 Z Z" stroke-miterlimit="10"/></g><g transform="translate(-198,-126) scale(1,1)"><rect fill="#ffffff" stroke="none" x="352" y="703" width="20" height="10"/></g><g transform="translate(-198,-126) scale(1,1)"><path fill="none" stroke="#000000" d="M 352 703 L 372 703 L 372 713 L 352 713 L 352 703 Z Z" stroke-miterlimit="10"/></g><g transform="translate(-198,-126) scale(1,1)"><rect fill="#ffffff" stroke="none" x="352" y="723" width="20" height="10"/></g><g transform="translate(-198,-126) scale(1,1)"><path fill="none" stroke="#000000" d="M 352 723 L 372 723 L 372 733 L 352 733 L 352 723 Z Z" stroke-miterlimit="10"/></g><g transform="translate(-198,-126) scale(1,1)"><g><path fill="none" stroke="none"/><text fill="#000000" stroke="none" font-family="Arial" font-size="13px" font-style="normal" font-weight="bold" text-decoration="none" x="380.46728515625" y="715.5">docker network</text></g></g><g transform="translate(-198,-126) scale(1,1)"><path fill="none" stroke="#000000" d="M 349 759 L 378 741" stroke-miterlimit="10" stroke-dasharray="3"/></g><g transform="translate(-198,-126) scale(1,1)"><path fill="none" stroke="#000000" d="M 371.58532657546925 749.9359926620729 L 378 741 L 367.14543991443225 742.7828419304021" stroke-miterlimit="10"/></g><g transform="translate(-198,-126) scale(1,1)"><path fill="none" stroke="#000000" d="M 473 751 L 455 741" stroke-miterlimit="10" stroke-dasharray="3"/></g><g transform="translate(-198,-126) scale(1,1)"><path fill="none" stroke="#000000" d="M 465.92809871352966 742.2556506310877 L 455 741 L 461.8394536297695 749.6152117818561" stroke-miterlimit="10"/></g><g transform="translate(-198,-126) scale(1,1)"><path fill="none" stroke="#000000" d="M 367 831 L 400 808 L 410 741" stroke-miterlimit="10" stroke-dasharray="3"/></g><g transform="translate(-198,-126) scale(1,1)"><path fill="none" stroke="#000000" d="M 412.66320037364164 751.6727392814514 L 410 741 L 404.33640072411026 750.4299333636109" stroke-miterlimit="10"/></g><g transform="translate(-198,-126) scale(1,1)"><path fill="none" stroke="#000000" d="M 481 839 L 448 816 L 422 741" stroke-miterlimit="10" stroke-dasharray="3"/></g><g transform="translate(-198,-126) scale(1,1)"><path fill="none" stroke="#000000" d="M 429.30601995484574 749.2232640976315 L 422 741 L 421.35141044663254 751.9808620604788" stroke-miterlimit="10"/></g><g transform="translate(-198,-126) scale(1,1)"><path fill="#ffffff" stroke="none" d="M 904 248 L 962 248 L 972 258 L 972 297 L 904 297 L 904 248"/></g><g transform="translate(-198,-126) scale(1,1)"><path fill="none" stroke="#000000" d="M 904 248 L 962 248 L 972 258 L 972 297 L 904 297 L 904 248 L 904 248" stroke-miterlimit="10"/></g><g transform="translate(-198,-126) scale(1,1)"><path fill="none" stroke="#000000" d="M 962 248 L 962 258 L 972 258 L 962 248" stroke-miterlimit="10"/></g><g transform="translate(-198,-126) scale(1,1)"><g><path fill="none" stroke="none"/><text fill="#000000" stroke="none" font-family="Arial" font-size="13px" font-style="normal" font-weight="normal" text-decoration="none" x="909" y="266">One</text><text fill="#000000" stroke="none" font-family="Arial" font-size="13px" font-style="normal" font-weight="normal" text-decoration="none" x="909" y="279">instance</text><text fill="#000000" stroke="none" font-family="Arial" font-size="13px" font-style="normal" font-weight="normal" text-decoration="none" x="909" y="292">per env</text></g></g></g></svg>
